<?xml version="1.0" standalone="no"?>
<!DOCTYPE svg PUBLIC "-//W3C//DTD SVG 20010904//EN"
 "http://www.w3.org/TR/2001/REC-SVG-20010904/DTD/svg10.dtd">
<svg version="1.0" xmlns="http://www.w3.org/2000/svg"
 width="897.000000pt" height="897.000000pt" viewBox="0 0 897.000000 897.000000"
 preserveAspectRatio="xMidYMid meet">
<metadata>
Created by potrace 1.11, written by Peter Selinger 2001-2013
</metadata>
<g transform="translate(0.000000,897.000000) scale(0.100000,-0.100000)"
fill="#000000" stroke="none">
<path d="M4278 8765 c-2 -1 -43 -5 -93 -9 -162 -11 -246 -21 -430 -51 -93 -15
-193 -37 -325 -70 -530 -132 -1050 -380 -1495 -713 -376 -282 -740 -659 -978
-1017 -26 -38 -50 -74 -55 -80 -11 -14 -101 -162 -130 -215 -13 -25 -28 -49
-32 -55 -10 -13 -130 -253 -162 -325 -80 -177 -196 -507 -233 -666 -2 -10 -9
-39 -16 -64 -6 -25 -13 -54 -15 -65 -32 -134 -76 -416 -91 -590 -15 -174 -8
-730 11 -831 2 -10 7 -46 10 -79 8 -70 13 -101 26 -170 5 -27 11 -63 14 -80 2
-16 9 -52 16 -80 6 -27 14 -59 16 -70 13 -66 60 -238 96 -350 23 -71 42 -132
43 -135 1 -3 5 -14 10 -25 4 -11 23 -58 41 -105 65 -168 166 -380 267 -560 39
-69 160 -257 230 -355 148 -209 268 -349 486 -565 380 -377 775 -645 1295
-879 97 -44 403 -157 450 -167 11 -2 40 -10 65 -19 85 -27 335 -84 466 -105
175 -28 171 -28 245 -35 36 -4 79 -9 95 -11 47 -5 313 -17 390 -17 85 0 343
12 376 18 13 2 52 6 86 9 115 12 249 31 343 51 14 3 39 8 55 11 49 8 278 64
305 73 14 5 72 24 130 41 58 17 119 38 137 46 17 8 34 14 37 14 9 0 249 96
273 109 10 5 63 31 118 58 554 265 1074 678 1466 1165 85 105 86 106 178 238
166 236 295 467 431 775 21 46 88 223 99 260 7 22 16 49 22 60 8 20 85 279 94
320 29 135 64 309 69 345 3 25 8 55 10 67 3 12 8 53 11 90 4 37 9 70 10 73 9
16 19 267 19 475 -1 274 -9 394 -40 594 -8 51 -16 108 -19 125 -3 27 -16 92
-31 161 -2 11 -6 29 -8 41 -34 169 -128 469 -213 679 -186 460 -492 939 -822
1289 -112 118 -269 270 -342 331 -312 261 -540 414 -864 580 -88 45 -173 86
-190 93 -16 6 -79 31 -139 57 -93 39 -347 129 -396 140 -8 2 -67 17 -130 34
-97 25 -193 47 -295 67 -11 2 -31 6 -45 9 -14 2 -45 7 -70 10 -25 3 -56 8 -70
10 -44 7 -93 14 -155 20 -33 3 -85 8 -115 11 -52 6 -537 14 -542 9z"/>
</g>
</svg>
